<?xml version="1.0" standalone="no"?>
<!DOCTYPE svg PUBLIC "-//W3C//DTD SVG 20010904//EN"
 "http://www.w3.org/TR/2001/REC-SVG-20010904/DTD/svg10.dtd">
<svg version="1.0" xmlns="http://www.w3.org/2000/svg"
 width="512.000000pt" height="512.000000pt" viewBox="0 0 512.000000 512.000000"
 preserveAspectRatio="xMidYMid meet">
<metadata>
Created by potrace 1.11, written by Peter Selinger 2001-2013
</metadata>
<g transform="translate(0.000000,512.000000) scale(0.100000,-0.100000)"
fill="#000000" stroke="none">
<path d="M3163 4787 l-173 -172 88 -88 87 -87 -343 -343 -343 -343 -142 -64
c-128 -58 -184 -83 -367 -167 -30 -14 -176 -81 -325 -148 -148 -68 -299 -136
-335 -153 -97 -44 -278 -126 -335 -152 -27 -12 -92 -42 -144 -66 -51 -24 -95
-44 -97 -44 -1 0 -42 -19 -91 -41 -48 -23 -117 -55 -153 -71 -123 -56 -155
-72 -205 -107 -110 -77 -208 -207 -247 -326 -64 -197 -37 -411 71 -575 33 -50
244 -268 752 -778 389 -389 728 -727 755 -750 144 -125 378 -181 570 -137 147
34 301 135 390 256 31 42 100 182 212 429 187 415 369 815 404 890 24 52 123
271 219 485 l174 390 347 350 348 350 87 -88 87 -88 176 176 175 175 -733 730
c-403 401 -734 730 -735 730 -1 -1 -80 -78 -174 -173z"/>
<path d="M4640 2297 c-136 -163 -273 -392 -326 -542 -100 -288 50 -553 336
-595 197 -28 396 102 452 295 45 152 -1 330 -147 571 -51 83 -166 244 -222
306 l-33 38 -60 -73z"/>
</g>
</svg>
